# xmcd CD database file
#
# Track frame offsets:
#	150
#	15677
#	30915
#	46495
#	68120
#	89377
#	102940
#	119315
#	134507
#	154050
#	166920
#
# Disc length: 2508 seconds
#
# Revision: 2
# Processed by: cddbd v1.5.2PL0 Copyright (c) Steve Scherf et al.
# Submitted via: CDex 1.51
#
DISCID=8709ca0b
DTITLE=American Head Charge - The Feeding
DYEAR=2005
DGENRE=Rock
TTITLE0=Loyalty
TTITLE1=Pledge Allegiance
TTITLE2=Dirty
TTITLE3=Ridicule
TTITLE4=Take What I've Taken
TTITLE5=Leave Me Alone
TTITLE6=Walk Away
TTITLE7=Erratic
TTITLE8=Fiend
TTITLE9=Cowards
TTITLE10=To Be Me
EXTD=American Head Charge YEAR: 2005
EXTT0=
EXTT1=
EXTT2=
EXTT3=
EXTT4=
EXTT5=
EXTT6=
EXTT7=
EXTT8=
EXTT9=
EXTT10=
PLAYORDER=
